# xmcd
#
# Track frame offsets: 
#        150
#        27246
#        49014
#        66060
#        85687
#        109667
#        131798
#        143055
#        180167
#        198028
#        217039
#        231892
#        274039
#
# Disc length: 3819 seconds
#
# Revision: 0
# Processed by: cddbd v1.5.2PL0 Copyright (c) Steve Scherf et al.
# Submitted via: ExactAudioCopy v0.95b3
#
DISCID=ae0ee90d
DTITLE=Frank Sinatra  - Capitol Outtakes and Masters - Disc 2
DYEAR=1900
DGENRE=
TTITLE0=Willow Weep For Me - alt.
TTITLE1=Willow Weep For Me - master
TTITLE2=Lush Life - alt.
TTITLE3=Gone With The Wind - alt.
TTITLE4=Gone With The Wind - master
TTITLE5=Where Or When - alt.
TTITLE6=Where Or When - master
TTITLE7=She's Funny That Way - alt.
TTITLE8=She's Funny That Way - master
TTITLE9=How Deep Is The Ocean - alt.
TTITLE10=How Deep Is The Ocean - master
TTITLE11=Nice 'N' Easy - alt.
TTITLE12=Nice 'N' Easy - master
EXTD=
EXTT0=
EXTT1=
EXTT2=
EXTT3=
EXTT4=
EXTT5=
EXTT6=
EXTT7=
EXTT8=
EXTT9=
EXTT10=
EXTT11=
EXTT12=
PLAYORDER=
